PathFileType	4	(X/Y/Z)	31_2_rein_74_p1_0-142_filt_butterworth.trc
DataRate	CameraRate	NumFrames	NumMarkers	Units	OrigDataRate	OrigDataStartFrame	OrigNumFrames
46.0	46.0	6	27	m	46.0	0	142
Frame#	Time	RHip			RKnee			RAnkle			RBigToe			RSmallToe			RHeel			LHip			LKnee			LAnkle			LBigToe			LSmallToe			LHeel			Neck			Head			Nose			RShoulder			RElbow			RWrist			RThumb			RIndex			RPinky			LShoulder			LElbow			LWrist			LThumb			LIndex			LPinky			
		X1	Y1	Z1	X2	Y2	Z2	X3	Y3	Z3	X4	Y4	Z4	X5	Y5	Z5	X6	Y6	Z6	X7	Y7	Z7	X8	Y8	Z8	X9	Y9	Z9	X10	Y10	Z10	X11	Y11	Z11	X12	Y12	Z12	X13	Y13	Z13	X14	Y14	Z14	X15	Y15	Z15	X16	Y16	Z16	X17	Y17	Z17	X18	Y18	Z18	X19	Y19	Z19	X20	Y20	Z20	X21	Y21	Z21	X22	Y22	Z22	X23	Y23	Z23	X24	Y24	Z24	X25	Y25	Z25	X26	Y26	Z26	X27	Y27	Z27	
0	0.0	0.192434798748037	0.5813182267925561	0.1408736711883231	0.1140906081566325	0.7561530712895019	0.5257818150211832	0.07997279805487428	1.0341753721778641	0.8997727640383686	0.06210424456310303	0.8061930299055826	0.9936651112749644	0.10820814667443611	0.8910649281183907	1.0008214945002738	0.07282483650610504	1.083496995671796	0.9332080692898659	-0.027256006057104938	0.5967921203245249	0.12215078056374629	-0.01715168994887191	0.7898123892476057	0.5129863073014165	-0.03826868101023023	1.0585201047817963	0.8760319786521682	-0.08270423119288066	0.842122131967986	0.9818275110476913	-0.12494845840680296	0.9208485606260512	0.9623580142726289	-0.022595842002222123	1.136835166278407	0.9322828640400754	0.13482723868418667	0.25847588729886967	-0.4619862217703297	0.13920182640136325	0.11874665240965876	-0.6961085981675933	0.1100386377277055	0.10668014794102021	-0.5254686595233362	0.31116473508060205	0.3314313880763805	-0.37417586061466246	0.3303824113851158	0.39142045277952175	-0.07189118567048196	0.14859994818429245	0.3390044190144972	0.14635554412758917	0.04621037512362047	0.3748321908219984	0.19120084076022031	0.04477636378128995	0.390073249890134	0.21695741140138436	0.052815832719996236	0.3864887683354218	0.21528648627429908	-0.03072068263036478	0.34027215140519806	-0.40712531952620057	-0.12464913284672266	0.44210725414252355	-0.14671263533787868	-0.0051988214099813745	0.350216030800966	0.10548736727783233	0.06200611343764438	0.342262019860221	0.18159568075539903	0.07753206771112378	0.34295283557617334	0.21024872552395663	0.05846323878334175	0.40256672866628107	0.21365189806937104
1	0.0217391304347826	0.19256767251255055	0.5808982194799763	0.140728846100173	0.11508301362646906	0.763144268825694	0.5282288416637989	0.07907548738494506	1.0351401525436488	0.899696442376462	0.06108886275679564	0.8025722952919182	0.9956375580333601	0.11102543595238168	0.8958211720856843	0.9987196102815145	0.0750889502469369	1.0835994504276267	0.9332467336442422	-0.028841816134607	0.5990503758656689	0.11858754054854057	-0.020485284090628317	0.7889941305724225	0.5128869365421267	-0.041032042759439356	1.046208392395273	0.8747326215042464	-0.08007492883198053	0.8407403029034302	0.981627005976204	-0.12261703737228881	0.9163031068568546	0.9643430685421781	-0.021983371450857363	1.1388435452697712	0.9324862281637954	0.13759530814101487	0.2581872434669911	-0.4616574238895893	0.13637678244041793	0.11812731568407052	-0.6960644820935211	0.10768922724344135	0.10387392223538226	-0.5306836960567526	0.31178975915485113	0.3269868821720064	-0.37250905379482685	0.33008580830530665	0.3902077912974352	-0.07159646425299568	0.1510326245518114	0.347788413121904	0.14711671697398535	0.04951433167593314	0.388329760515644	0.19379589693360794	0.04657425878341641	0.3989510008804112	0.2193331773097727	0.052402843321353136	0.3859377075259455	0.2125738894900118	-0.030635116634078884	0.34030116032113306	-0.4072280387210999	-0.12368425836882131	0.45536648681497555	-0.1504403858928579	-0.0053890819195493815	0.348059352318899	0.10280331062153134	0.06328202077020322	0.34551103557813256	0.17969951044365912	0.07694971195372081	0.35240985630750454	0.20928769240568879	0.06030927865877164	0.4069667066323247	0.20753460015774525
2	0.0434782608695652	0.19259673147096132	0.5806256381933277	0.14057878986928496	0.11449415161161125	0.7628468555078795	0.5294092512347217	0.0786504427658174	1.0357768972997732	0.8997398798082014	0.06161786063471598	0.8043103392303848	0.996640381867319	0.11472187681111125	0.9037366811259977	0.999404507018888	0.0747878983006475	1.0837659049469324	0.9332072315788082	-0.030591924275907716	0.6036241324917611	0.1167463511998982	-0.022025438879259278	0.7884730156233395	0.5128875469841827	-0.04126474909841601	1.0450128038043491	0.8742933384805248	-0.0799161628206182	0.8437740817313959	0.981819343301114	-0.12267962271961287	0.9183725319580132	0.9656519025982281	-0.02170891239023642	1.1398752815895115	0.9325914077785032	0.1380971625513177	0.25878277753996165	-0.46209692117135215	0.1361405176268196	0.11806670143482194	-0.6960636737018926	0.10663385460942235	0.10207612750276143	-0.5337747905827067	0.31081445861449886	0.3225202590592636	-0.3708642457634239	0.3299437018883936	0.3895942845764522	-0.07143852426415534	0.15253682382501382	0.3525245544676948	0.14742930449540717	0.05169476863119382	0.39575479455968066	0.19607188899678268	0.04761300822772559	0.4045975642563736	0.22146480094019838	0.053211045402143546	0.38955631241325905	0.21294639933147952	-0.030605713861909044	0.34024564381281963	-0.4072534074475421	-0.12316167292494833	0.461177746130407	-0.15203350883373473	-0.00537565982583215	0.3466243194148394	0.10157404994300587	0.06498920807120043	0.35032433245900985	0.1791952115201308	0.07873076323123937	0.3586327524181438	0.20880606250430872	0.06143504054627652	0.40916412937309055	0.20494796986672598
3	0.0652173913043478	0.1925673857141083	0.580508097388486	0.14044280058959915	0.1133490814290189	0.7590230696605551	0.5294898167939934	0.07862101020294156	1.0360353503881132	0.8997971909247526	0.06282165675169706	0.8083816812498739	0.996842515301014	0.11782629054832147	0.9093514250540301	1.001590535088741	0.07336555150832515	1.0839734868818618	0.9330561022389658	-0.03174546696878687	0.6075176567122971	0.11621322548523869	-0.02205959890244181	0.7882749749797596	0.5128866492814499	-0.03951841810751833	1.0522919116883347	0.8746643793054675	-0.0815141635689284	0.8454650606439958	0.9817847760647825	-0.1238918235687251	0.9228259572506923	0.9660397559634545	-0.021727347479882864	1.139886830393872	0.9318303887831886	0.13683964896153672	0.2618522720400214	-0.46444271440863943	0.1378865581839935	0.11842361450337115	-0.6961328015849013	0.10663624557187643	0.10147166737302504	-0.5345890802698612	0.3084609238689291	0.3203202688675655	-0.37008314327455744	0.32990372581700067	0.38948911083288557	-0.0713921526546632	0.1537282112511198	0.35608163707390206	0.1475430981243061	0.052375460166325556	0.39835630322118415	0.1980334870032857	0.048682107913480696	0.40937951254192645	0.22305522650853543	0.05523056597997859	0.39589637240545356	0.21547170143679112	-0.030615537371789767	0.34012587213588247	-0.4072269258067964	-0.12246668186142087	0.45910805440974467	-0.1513727501312162	-0.005217496436208303	0.3470574859370884	0.10154216339171893	0.06623463082796605	0.3541305612250345	0.1795485497039233	0.0812116865372941	0.3611567839763712	0.20886341700448155	0.06246906424944812	0.40983910610804253	0.20577045796262955
4	0.0869565217391304	0.19255936394461118	0.5804584192155859	0.14044559717642177	0.11293271885376172	0.7573140290605692	0.5293149958983888	0.0787893448922132	1.0358860550889417	0.8993821980855918	0.06344317378051174	0.8105256721779777	0.9970123722649848	0.11955031853526128	0.9065807905450801	1.0026745698828308	0.0728114301967828	1.0841676949096157	0.9328539060792205	-0.03170236655219227	0.6076457630654717	0.11602164935783194	-0.021875333434558924	0.788412161538235	0.5127189780288648	-0.03804535741122256	1.0581759753214586	0.8752076394604507	-0.08270996912581438	0.843453935413635	0.9813653570463664	-0.12441532060326307	0.9243742020407508	0.9659003126471907	-0.021802627878388804	1.1395640550675397	0.930681092197704	0.1357145587940706	0.26677345668121394	-0.46807864200191385	0.1393107783167829	0.11872216809840051	-0.6962220672781791	0.10675057587774074	0.10146884901111458	-0.5344118907988827	0.3066340326818016	0.3206347429512256	-0.37019948643161343	0.32985481985462317	0.38946498761216813	-0.07141021321351501	0.15517203931916343	0.3609688875425394	0.14741022221886235	0.05226237388896324	0.40137755346059334	0.1997660960655894	0.05022975809586039	0.4152135807569993	0.22404289391160132	0.05693023282073667	0.40008131375696165	0.21731151367793392	-0.030631373652042226	0.3400190603737533	-0.4071976322591047	-0.12167053833984565	0.45535239694821356	-0.15025850051348835	-0.005363100883492034	0.35098331308305447	0.10173875388648988	0.06648915614929585	0.3552419308253203	0.17976175368065786	0.08230477201398101	0.36299557296548857	0.20958220837524705	0.06385609429918009	0.41072133660593396	0.2078303106964822
5	0.108695652173913	0.19256142486175093	0.5803991315347407	0.14081856205964977	0.11304439824293086	0.7575703230807729	0.5292687453802896	0.07919793758721796	1.0352554089187216	0.8983868152181493	0.06346854048802698	0.8107252972023958	0.9973101947505686	0.12057639537209344	0.8985227133521643	1.00251061231771	0.07294511845588325	1.0842817539617597	0.9327377100620021	-0.030785487334916477	0.6050605905733194	0.11689141620135586	-0.022081342494602793	0.7889975410620789	0.5126963419364685	-0.037703297556435846	1.0592023245771356	0.875476654136196	-0.08287557662661932	0.8417978551091656	0.9811004962869899	-0.12432769279423955	0.9239000171748449	0.9657679023985507	-0.021809688181338813	1.139428166954849	0.9302010002029869	0.1353981323071097	0.2703760390272698	-0.47061328232201255	0.1395974185336693	0.11880643709151816	-0.6962529179821816	0.10662764730031789	0.10150348332005837	-0.5342417640549975	0.3062335236712781	0.32135419468488524	-0.3704011813922219	0.32981440597856765	0.38936685394668835	-0.07146449749157352	0.1563061668329453	0.3645260640332045	0.14667212765138493	0.05228972981458427	0.405407201677521	0.20082572961446324	0.051379443549680326	0.41965552032108655	0.22453942703348262	0.05769839833679315	0.40090203092195903	0.21791112930764792	-0.030642908762376936	0.3399517742086574	-0.4071545732471803	-0.12137495810925643	0.4541869685981856	-0.1499218657328299	-0.006304877431815815	0.35746201532726607	0.10189466617160936	0.06631842811111666	0.35488290813934614	0.17976816633132822	0.08243228925868372	0.3669306604128292	0.2108622674536344	0.06495229438723148	0.4124640050143003	0.21010844932113287
